<svg id="Layer_1" data-name="Layer 1" xmlns="http://www.w3.org/2000/svg" viewBox="0 0 1277.06 322.07"><defs><style>.cls-1{fill:#e1dfdf;}.cls-2{fill:#302581;}.cls-3,.cls-4{fill:#01a0e4;}.cls-4{font-size:300.29px;font-family:Neuropol-Regular, Neuropol;}.cls-5{letter-spacing:-0.02em;}</style></defs><title>iTECH logo complete</title><path class="cls-1" d="M194.81,399.08a.05.05,0,0,0,0,0q-3.27,2.32-6.72,4.53c-43,27.51-90.74,29.74-106.56,5-8.81-13.78-5.88-33,5.87-52.1a27.3,27.3,0,0,0-1.23,5.23c-4.66,13.05-4.47,25,1.68,33.87,3.74,5.38,9.34,9.1,16.27,11.22v0l.93.25c.24.08.48.14.73.2.61.17,1.24.32,1.87.45l.61.14c.78.16,1.58.3,2.38.42l.21,0c1.28.2,2.6.34,3.94.45,1,.08,2.11.14,3.19.17h0c1,0,2,0,3,0h0c1,0,2-.05,3.07-.11h0l1.57-.09h0a104.84,104.84,0,0,0,22.18-4.37,141.35,141.35,0,0,0,15.28-5.71,163.33,163.33,0,0,0,19.19-10h0A138.93,138.93,0,0,1,194.81,399.08Z" transform="translate(-49.97 -222.15)"/><path class="cls-1" d="M218.42,435.36l-.23-.94c-.07-.25-.12-.49-.2-.73-.16-.62-.35-1.23-.54-1.85-.07-.2-.13-.39-.19-.59-.25-.76-.53-1.52-.83-2.29l-.07-.18c-.48-1.21-1-2.43-1.59-3.64-.45-.95-.93-1.9-1.45-2.85v0c-.47-.86-1-1.72-1.49-2.59l0,0c-.52-.87-1.06-1.73-1.63-2.59h0c-.29-.44-.58-.87-.88-1.3q-2.24,1.58-4.54,3.14-5.61,3.76-11.29,7.1a27.18,27.18,0,0,0-42.42,18.82,152.05,152.05,0,0,1-19.87,4.6,20.78,20.78,0,0,0-32.31.36c-14.2-2.4-25.59-8.63-32.46-18.84-9.32-13.87-8.68-32.73-.07-52.68-16.93,26-21.63,52.57-9.82,71.9,8.12,13.28,22.84,21.19,41.26,23.8a20.75,20.75,0,0,0,35.29-.82A166.91,166.91,0,0,0,158.21,467a27.25,27.25,0,0,0,30.13,6.5,27.67,27.67,0,0,0,3.23-1.6,27.16,27.16,0,0,0,13.35-27.18Q212,440.2,218.42,435.36Zm-97.06,38a12.38,12.38,0,1,1,4.54-16.92A12.38,12.38,0,0,1,121.36,473.34ZM186,462.2a16,16,0,1,1,5.87-21.89A16,16,0,0,1,186,462.2Z" transform="translate(-49.97 -222.15)"/><path class="cls-2" d="M172.22,259.24c-15.56.39-29.77,9.18-41.23,23.83a20.75,20.75,0,0,0-17,31,167.45,167.45,0,0,0-7.22,24.85,27.17,27.17,0,0,0-20.69,22.84,28.51,28.51,0,0,0-.24,3.6,27.18,27.18,0,0,0,16.87,25.15c.24,5.55.68,11,1.32,16.34l.93.27c.24.08.48.14.73.2.61.17,1.24.32,1.87.45l.61.14c.78.16,1.58.3,2.38.42l.21,0c1.28.2,2.6.34,3.94.45,1,.08,2.11.14,3.19.17h0c1,0,2,0,3,0h0c1,0,2-.05,3.07-.11h0l1.57-.1c-.17-1.83-.33-3.66-.45-5.51q-.47-6.75-.51-13.33a27.18,27.18,0,0,0,4.92-46.15,148.94,148.94,0,0,1,5.95-19.5,20.78,20.78,0,0,0,15.84-28.16c9.18-11.1,20.27-17.86,32.54-18.69,16.68-1.15,32.69,8.84,45.66,26.28C215.54,276,194.87,258.67,172.22,259.24ZM111.77,381.32A16,16,0,1,1,129,364.06,16.08,16.08,0,0,1,111.77,381.32Zm21.59-65.21a12.38,12.38,0,1,1,11.06-11.06A12.38,12.38,0,0,1,133.36,316.11Z" transform="translate(-49.97 -222.15)"/><path class="cls-2" d="M237.6,332.22l-.06.14a25.42,25.42,0,0,0-3.57-3.29c-9-10.58-19.44-16.4-30.17-15.49-6.53.55-12.55,3.54-17.85,8.48h0c-.23.21-.46.45-.69.68l-.53.52c-.45.46-.89.93-1.32,1.4l-.43.47c-.52.59-1,1.22-1.56,1.85,0,.06-.09.11-.13.16-.81,1-1.59,2.09-2.35,3.2-.59.86-1.18,1.75-1.74,2.67l0,0c-.51.83-1,1.69-1.5,2.57l0,0c-.49.89-1,1.79-1.44,2.71h0l-.71,1.41h0c-7.34,15.32-11.44,36.11-10.93,59.11a142,142,0,0,1-15.27,5.64q-.39-4-.58-8.13c-2.3-51,19.62-93.45,49-94.78C211.89,300.87,227,312.81,237.6,332.22Z" transform="translate(-49.97 -222.15)"/><path class="cls-3" d="M231.25,454c-7.45,14.39-25.33,21.47-47.46,21a.57.57,0,0,1-.08-.13,27.43,27.43,0,0,0,4.63-1.43c13.63-2.49,23.91-8.65,28.49-18.4,2.79-5.92,3.21-12.63,1.59-19.69h0c-.07-.31-.17-.63-.24-.93s-.12-.49-.2-.73c-.16-.62-.35-1.23-.54-1.85-.07-.2-.13-.39-.19-.59-.25-.76-.53-1.52-.83-2.29l-.07-.18c-.48-1.21-1-2.43-1.59-3.64-.45-.95-.93-1.9-1.45-2.85v0c-.47-.86-1-1.72-1.49-2.59l0,0c-.52-.87-1.06-1.73-1.63-2.59h0l-.86-1.32,0,0a103.05,103.05,0,0,0-14.52-16.69,137.45,137.45,0,0,0-12.52-10.42A164.62,164.62,0,0,0,164.05,377l-.47-.26a140.38,140.38,0,0,1,2.75-16.05l.46.21q3.44,1.58,6.86,3.36C219,387.75,244.78,428,231.25,454Z" transform="translate(-49.97 -222.15)"/><path class="cls-3" d="M279.68,407.24a20.76,20.76,0,0,0-18.35-30.16,168.84,168.84,0,0,0-17.92-18.68,27.21,27.21,0,0,0-5.87-26,25.42,25.42,0,0,0-3.57-3.29,26.14,26.14,0,0,0-3-2,27.16,27.16,0,0,0-30.21,2c-4.92-2.57-9.87-4.92-14.81-7l-.71.67-.53.52c-.45.46-.89.93-1.32,1.4l-.43.47c-.52.59-1,1.22-1.56,1.85,0,.06-.09.11-.13.16-.81,1-1.59,2.09-2.35,3.2-.59.86-1.18,1.75-1.74,2.67l0,0c-.51.83-1,1.69-1.5,2.57l0,0c-.49.89-1,1.79-1.44,2.71h0q-.36.7-.69,1.41c1.66.77,3.32,1.55,5,2.36q6.08,3,11.8,6.23a27.18,27.18,0,0,0,37.51,27.33,151.17,151.17,0,0,1,13.92,14.91,20.75,20.75,0,0,0,16.46,27.79c5,13.5,5.33,26.49-.08,37.54-7.36,15-24,23.88-45.59,26.4,31,1.67,56.34-7.56,67.18-27.45C287.14,441.2,286.63,424.5,279.68,407.24ZM231.26,358.6a16,16,0,1,1-5.86-21.89A16,16,0,0,1,231.26,358.6ZM271.9,404a12.38,12.38,0,1,1-4.54-16.92A12.38,12.38,0,0,1,271.9,404Z" transform="translate(-49.97 -222.15)"/><text class="cls-4" transform="translate(243.76 259.01) scale(0.9 1)">i<tspan class="cls-5" x="66.36" y="0">T</tspan><tspan x="312.01" y="0">ECH</tspan></text></svg>