<svg id="Layer_1" data-name="Layer 1" xmlns="http://www.w3.org/2000/svg" viewBox="0 0 1266.34 224.04"><defs><style>.cls-1{fill:#fff;}.cls-2{isolation:isolate;}</style></defs><title>iTECH logo white</title><path class="cls-1" d="M144.8,176.9h0c-2.2,1.5-4.4,3.1-6.7,4.5-43,27.5-90.7,29.7-106.6,5-8.8-13.8-5.9-33,5.9-52.1a24.43,24.43,0,0,0-1.2,5.2c-4.7,13-4.5,25,1.7,33.9,3.7,5.4,9.3,9.1,16.3,11.2h0l.9.3c.2.1.5.1.7.2.6.2,1.2.3,1.9.5l.6.1a20,20,0,0,0,2.4.4h.2c1.3.2,2.6.3,3.9.5,1,.1,2.1.1,3.2.2h3c1,0,2,0,3.1-.1h0l1.6-.1h0a105.19,105.19,0,0,0,22.2-4.4,140.7,140.7,0,0,0,15.3-5.7,159.1,159.1,0,0,0,19.2-10h0A136.51,136.51,0,0,1,144.8,176.9Z" transform="translate(0.04 -37.08)"/><path class="cls-1" d="M168.4,213.2l-.2-.9a6.37,6.37,0,0,0-.2-.7,10.55,10.55,0,0,1-.5-1.9c-.1-.2-.1-.4-.2-.6-.3-.8-.5-1.5-.8-2.3l-.1-.2c-.5-1.2-1-2.4-1.6-3.6-.4-1-.9-1.9-1.4-2.9h0c-.5-.9-1-1.7-1.5-2.6h0c-.5-.9-1.1-1.7-1.6-2.6h0c-.3-.4-.6-.9-.9-1.3-1.5,1.1-3,2.1-4.5,3.1-3.7,2.5-7.5,4.9-11.3,7.1a27.15,27.15,0,0,0-37.8,6.9,27.66,27.66,0,0,0-4.6,11.9,151,151,0,0,1-19.9,4.6A20.88,20.88,0,0,0,52,224.4a30.24,30.24,0,0,0-3.1,3.1c-14.2-2.4-25.6-8.6-32.5-18.8C7.1,194.8,7.7,176,16.3,156-.6,182-5.3,208.6,6.5,227.9c8.1,13.3,22.8,21.2,41.3,23.8a20.76,20.76,0,0,0,35.3-.8,167.28,167.28,0,0,0,25.1-6.2,27.11,27.11,0,0,0,30.1,6.5,31.82,31.82,0,0,0,3.2-1.6,27.23,27.23,0,0,0,13.4-27.2A133.2,133.2,0,0,0,168.4,213.2Zm-97,38a12.37,12.37,0,1,1,4.5-16.9,12.39,12.39,0,0,1-4.5,16.9ZM136,240.1a16,16,0,1,1,5.9-21.8,15.91,15.91,0,0,1-5.9,21.8C136.1,240,136,240,136,240.1Z" transform="translate(0.04 -37.08)"/><path class="cls-1" d="M122.3,37.1c-15.6.4-29.8,9.2-41.2,23.8a20.74,20.74,0,0,0-17,31,164.93,164.93,0,0,0-7.2,24.9,27.19,27.19,0,0,0-20.7,22.8,21.74,21.74,0,0,0-.2,3.6,27.09,27.09,0,0,0,16.9,25.1c.2,5.5.7,11,1.3,16.3l.8.4c.2.1.5.1.7.2.6.2,1.2.3,1.9.5l.6.1a20,20,0,0,0,2.4.4h.2c1.3.2,2.6.3,3.9.5,1,.1,2.1.1,3.2.2h3c1,0,2,0,3.1-.1h0l1.6-.1c-.2-1.8-.3-3.7-.4-5.5-.3-4.5-.5-8.9-.5-13.3a27.19,27.19,0,0,0,13-36.2,27.72,27.72,0,0,0-8-10,150.66,150.66,0,0,1,5.9-19.5,20.78,20.78,0,0,0,17-24,16.6,16.6,0,0,0-1.2-4.2c9.2-11.1,20.3-17.9,32.5-18.7,16.7-1.1,32.7,8.8,45.7,26.3C165.6,53.9,144.9,36.5,122.3,37.1ZM61.8,159.2a16.05,16.05,0,1,1,2.4,0ZM83.4,94A12.41,12.41,0,1,1,94.5,80.4a10.45,10.45,0,0,1,0,2.5A12.55,12.55,0,0,1,83.4,94Z" transform="translate(0.04 -37.08)"/><path class="cls-1" d="M187.6,110.1l-.1.1a28.19,28.19,0,0,0-3.6-3.3c-9-10.6-19.4-16.4-30.2-15.5-6.5.5-12.6,3.5-17.9,8.5h0l-.7.7-.5.5c-.4.5-.9.9-1.3,1.4l-.3.5c-.5.6-1,1.2-1.6,1.9,0,.1-.1.1-.1.2-.8,1-1.6,2.1-2.4,3.2-.6.9-1.2,1.8-1.7,2.7h0c-.5.8-1,1.7-1.5,2.6h0c-.5.9-1,1.8-1.4,2.7h0l-.7,1.4h0c-7.3,15.3-11.4,36.1-10.9,59.1a122,122,0,0,1-15.3,5.6q-.45-4.05-.6-8.1c-2.3-51,19.6-93.5,49-94.8C161.9,78.7,177,90.7,187.6,110.1Z" transform="translate(0.04 -37.08)"/><path class="cls-1" d="M181.3,231.9c-7.4,14.4-25.3,21.5-47.5,21l-.1-.1a24.44,24.44,0,0,0,4.6-1.4c13.6-2.5,23.9-8.6,28.5-18.4,2.8-5.9,3.2-12.6,1.6-19.7h0a2.92,2.92,0,0,1-.2-.9,1.45,1.45,0,0,0-.2-.7,10.55,10.55,0,0,1-.5-1.9c-.1-.2-.1-.4-.2-.6-.3-.8-.5-1.5-.8-2.3l-.1-.2c-.5-1.2-1-2.4-1.6-3.6-.4-1-.9-1.9-1.4-2.9h0c-.5-.9-1-1.7-1.5-2.6h0c-.5-.9-1.1-1.7-1.6-2.6h0l-.9-1.3h0A100.5,100.5,0,0,0,144.9,177a137.79,137.79,0,0,0-12.5-10.4,165.6,165.6,0,0,0-18.2-11.7l-.5-.3a121.61,121.61,0,0,1,2.8-16l.5.2c2.3,1.1,4.6,2.2,6.9,3.4C169,165.6,194.8,205.9,181.3,231.9Z" transform="translate(0.04 -37.08)"/><path class="cls-1" d="M229.7,185.1a20.77,20.77,0,0,0-9.1-27.9,19.8,19.8,0,0,0-9.2-2.2,175.77,175.77,0,0,0-17.9-18.7,27.12,27.12,0,0,0-5.9-26A28.19,28.19,0,0,0,184,107c-1-.7-2-1.4-3-2a27.27,27.27,0,0,0-30.2,2c-4.9-2.6-9.9-4.9-14.8-7l-.7.7-.5.5c-.4.5-.9.9-1.3,1.4l-.5.4c-.5.6-1,1.2-1.6,1.9,0,.1-.1.1-.1.2-.8,1-1.6,2.1-2.4,3.2-.6.9-1.2,1.8-1.7,2.7h0c-.5.8-1,1.7-1.5,2.6h0c-.5.9-1,1.8-1.4,2.7h0c-.2.5-.5.9-.7,1.4,1.7.8,3.3,1.5,5,2.4,4.1,2,8,4.1,11.8,6.2a27.15,27.15,0,0,0,24.9,29.3,25.79,25.79,0,0,0,12.6-2,150.43,150.43,0,0,1,13.9,14.9,20.77,20.77,0,0,0,16.5,27.8c5,13.5,5.3,26.5-.1,37.5-7.4,15-24,23.9-45.6,26.4,31,1.7,56.3-7.6,67.2-27.5C237.2,219.1,236.7,202.4,229.7,185.1Zm-48.4-48.6a16,16,0,1,1-5.9-21.9,16,16,0,0,1,5.9,21.9Zm40.6,45.4a12.37,12.37,0,1,1-4.5-16.9,12.26,12.26,0,0,1,4.5,16.9Z" transform="translate(0.04 -37.08)"/><g class="cls-2"><path class="cls-1" d="M252.1,58.7c0-6.4,1.7-11.1,5-14.1s8.8-4.5,16.4-4.5,13,1.5,16.4,4.5,5,7.7,5,14.1-1.7,11.1-5,14.1-8.8,4.5-16.4,4.5-13-1.5-16.4-4.5S252.1,65.1,252.1,58.7Zm38.7,187.4c0,5.8-1.4,9.6-4.3,11.4s-7.2,2.7-13,2.7-10-.9-12.8-2.7-4.2-5.6-4.2-11.4V104.4q0-8.7,4.2-11.4c2.8-1.8,7.1-2.7,12.8-2.7s10.1.9,13,2.7,4.3,5.6,4.3,11.4Z" transform="translate(0.04 -37.08)"/></g><g class="cls-2"><path class="cls-1" d="M434.6,73.7V246.1c0,5.8-1.5,9.6-4.6,11.4s-7.6,2.7-13.5,2.7-10.2-.9-13.2-2.7-4.6-5.6-4.6-11.4V73.7H317.4c-4.3,0-7.2-1.4-8.5-4.1s-2-6.8-2-12.2.7-9.5,2-12.2,4.2-4.1,8.5-4.1H516.3c4.3,0,7.2,1.4,8.5,4.1s2,6.8,2,12.2-.7,9.5-2,12.2-4.2,4.1-8.5,4.1Z" transform="translate(0.04 -37.08)"/></g><g class="cls-2"><path class="cls-1" d="M570.5,168v35.1q0,9.6,10.8,16.5c7.2,4.6,18.7,6.9,34.6,6.9H745.1c4.3,0,7.2,1.4,8.5,4.1s2,6.8,2,12.2c0,5.2-.7,9.2-2,12s-4.2,4.2-8.5,4.2H614.8q-79.95,0-80-55.9V97.1q0-55.8,80-55.9h40.3c4.1,0,6.9,1.4,8.2,4.1s2,6.8,2,12.2-.7,9.5-2,12.2-4.1,4.1-8.2,4.1H615.9c-15.9,0-27.4,2.3-34.6,6.8s-10.8,10.1-10.8,16.7v38.4H745.9c4.3,0,7.2,1.4,8.5,4.1s2,6.8,2,12.2-.7,9.5-2,12.2-4.2,4.1-8.5,4.1H570.5Z" transform="translate(0.04 -37.08)"/><path class="cls-1" d="M855.9,259q-79.95,0-80-55.9V97.1q0-55.8,80-55.9H988.3c4.3,0,7.2,1.4,8.5,4.1s2,6.8,2,12.2-.7,9.5-2,12.2-4.2,4.1-8.5,4.1H857c-15.9,0-27.4,2.3-34.6,6.8s-10.8,10.1-10.8,16.7v106q0,9.6,10.8,16.5c7.2,4.6,18.7,6.9,34.6,6.9H988.6c4.3,0,7.1,1.4,8.4,4.1s1.9,6.8,1.9,12.2c0,5.2-.6,9.2-1.9,12s-4.1,4.2-8.4,4.2H855.9Z" transform="translate(0.04 -37.08)"/><path class="cls-1" d="M1056.4,135.6h174V54.2c0-5.8,1.5-9.6,4.6-11.4s7.6-2.7,13.5-2.7,10.2.9,13.2,2.7,4.6,5.6,4.6,11.4V246.1c0,5.8-1.5,9.6-4.6,11.4s-7.5,2.7-13.2,2.7c-5.9,0-10.5-.9-13.5-2.7s-4.6-5.6-4.6-11.4V168h-174v78.1c0,5.8-1.5,9.6-4.6,11.4s-7.6,2.7-13.5,2.7-10.2-.9-13.2-2.7-4.6-5.6-4.6-11.4V54.2c0-5.8,1.5-9.6,4.6-11.4s7.5-2.7,13.2-2.7q8.85,0,13.5,2.7c3.1,1.8,4.6,5.6,4.6,11.4Z" transform="translate(0.04 -37.08)"/></g></svg>