<?xml version="1.0" encoding="utf-8"?>
<!-- Generator: Adobe Illustrator 23.0.1, SVG Export Plug-In . SVG Version: 6.00 Build 0)  -->
<svg version="1.1" id="Layer_1" xmlns="http://www.w3.org/2000/svg" xmlns:xlink="http://www.w3.org/1999/xlink" x="0px" y="0px"
	 viewBox="0 0 1356.4 302" style="enable-background:new 0 0 1356.4 302;" xml:space="preserve">
<style type="text/css">
	.st0{fill:#E1DFDF;}
	.st1{fill:#302581;}
	.st2{fill:#01A0E4;}
	.st3{enable-background:new    ;}
</style>
<path class="st0" d="M144.8,156.8L144.8,156.8c-2.2,1.5-4.4,3.1-6.7,4.5c-43,27.5-90.7,29.7-106.6,5c-8.8-13.8-5.9-33,5.9-52.1
	c-0.6,1.7-1,3.5-1.2,5.2c-4.7,13-4.5,25,1.7,33.9c3.7,5.4,9.3,9.1,16.3,11.2l0,0l0.9,0.3c0.2,0.1,0.5,0.1,0.7,0.2
	c0.6,0.2,1.2,0.3,1.9,0.5l0.6,0.1c0.8,0.2,1.6,0.3,2.4,0.4h0.2c1.3,0.2,2.6,0.3,3.9,0.5c1,0.1,2.1,0.1,3.2,0.2l0,0c1,0,2,0,3,0l0,0
	c1,0,2,0,3.1-0.1l0,0l1.6-0.1l0,0c7.5-0.7,15-2.1,22.2-4.4c5.2-1.6,10.3-3.5,15.3-5.7c6.6-2.9,13-6.2,19.2-10l0,0
	C136.7,149.6,140.9,153.1,144.8,156.8z"/>
<path class="st0" d="M168.4,193.1l-0.2-0.9c-0.1-0.3-0.1-0.5-0.2-0.7c-0.2-0.6-0.4-1.2-0.5-1.9c-0.1-0.2-0.1-0.4-0.2-0.6
	c-0.3-0.8-0.5-1.5-0.8-2.3l-0.1-0.2c-0.5-1.2-1-2.4-1.6-3.6c-0.4-1-0.9-1.9-1.4-2.9l0,0c-0.5-0.9-1-1.7-1.5-2.6l0,0
	c-0.5-0.9-1.1-1.7-1.6-2.6l0,0c-0.3-0.4-0.6-0.9-0.9-1.3c-1.5,1.1-3,2.1-4.5,3.1c-3.7,2.5-7.5,4.9-11.3,7.1
	c-12.3-8.5-29.3-5.5-37.8,6.9c-2.5,3.6-4,7.7-4.6,11.9c-6.5,2-13.2,3.5-19.9,4.6c-7.3-8.8-20.4-10.1-29.3-2.8
	c-1.1,0.9-2.1,2-3.1,3.1c-14.2-2.4-25.6-8.6-32.5-18.8c-9.3-13.9-8.7-32.7-0.1-52.7c-16.9,26-21.6,52.6-9.8,71.9
	c8.1,13.3,22.8,21.2,41.3,23.8c6.3,9.6,19.1,12.3,28.7,6.1c2.7-1.8,5-4.1,6.6-6.9c8.5-1.4,16.9-3.5,25.1-6.2
	c7.7,8.2,19.7,10.8,30.1,6.5c1.1-0.5,2.2-1,3.2-1.6c9.6-5.5,14.8-16.2,13.4-27.2C159.7,199.5,164.2,196.4,168.4,193.1z M71.4,231.1
	c-5.9,3.4-13.5,1.4-16.9-4.5s-1.4-13.5,4.5-16.9c5.9-3.4,13.5-1.4,16.9,4.5C79.3,220.1,77.3,227.7,71.4,231.1L71.4,231.1z M136,220
	c-7.7,4.4-17.4,1.8-21.8-5.9c-4.4-7.7-1.8-17.4,5.9-21.8c7.6-4.4,17.4-1.8,21.8,5.9C146.3,205.7,143.7,215.5,136,220
	C136.1,220,136,220,136,220z"/>
<path class="st1" d="M122.3,17c-15.6,0.4-29.8,9.2-41.2,23.8c-11.4,0.6-20.3,10.3-19.7,21.8c0.2,3.3,1.1,6.4,2.7,9.2
	c-3,8.1-5.5,16.4-7.2,24.9c-11,2.6-19.2,11.7-20.7,22.8c-0.2,1.2-0.2,2.4-0.2,3.6c0,11,6.7,21,16.9,25.1c0.2,5.5,0.7,11,1.3,16.3
	l0.9,0.3c0.2,0.1,0.5,0.1,0.7,0.2c0.6,0.2,1.2,0.3,1.9,0.5l0.6,0.1c0.8,0.2,1.6,0.3,2.4,0.4h0.2c1.3,0.2,2.6,0.3,3.9,0.5
	c1,0.1,2.1,0.1,3.2,0.2l0,0c1,0,2,0,3,0l0,0c1,0,2,0,3.1-0.1l0,0l1.6-0.1c-0.2-1.8-0.3-3.7-0.4-5.5c-0.3-4.5-0.5-8.9-0.5-13.3
	c13.6-6.4,19.4-22.6,13-36.2c-1.8-3.9-4.6-7.3-8-10c1.5-6.6,3.5-13.1,5.9-19.5c11.3-1.9,18.9-12.6,17-24c-0.2-1.4-0.6-2.8-1.2-4.2
	c9.2-11.1,20.3-17.9,32.5-18.7c16.7-1.1,32.7,8.8,45.7,26.3C165.6,33.8,144.9,16.4,122.3,17z M61.8,139.1
	c-8.8-0.7-15.4-8.4-14.7-17.2c0.7-8.8,8.4-15.4,17.2-14.7c7.8,0.6,14,6.8,14.7,14.6c0.7,8.9-6,16.6-14.8,17.3
	C63.4,139.1,62.6,139.2,61.8,139.1z M83.4,73.9c-6.8,0.7-12.9-4.3-13.6-11.1c-0.7-6.8,4.3-12.9,11.1-13.6
	c6.8-0.7,12.9,4.3,13.6,11.1c0.1,0.8,0.1,1.7,0,2.5C93.9,68.7,89.2,73.3,83.4,73.9L83.4,73.9z"/>
<path class="st1" d="M187.6,90l-0.1,0.1c-1.1-1.2-2.3-2.3-3.6-3.3c-9-10.6-19.4-16.4-30.2-15.5c-6.5,0.5-12.6,3.5-17.9,8.5l0,0
	c-0.2,0.2-0.5,0.5-0.7,0.7l-0.5,0.5c-0.4,0.5-0.9,0.9-1.3,1.4l-0.4,0.5c-0.5,0.6-1,1.2-1.6,1.9c0,0.1-0.1,0.1-0.1,0.2
	c-0.8,1-1.6,2.1-2.4,3.2c-0.6,0.9-1.2,1.8-1.7,2.7l0,0c-0.5,0.8-1,1.7-1.5,2.6l0,0c-0.5,0.9-1,1.8-1.4,2.7l0,0l-0.7,1.4l0,0
	c-7.3,15.3-11.4,36.1-10.9,59.1c-5,2.2-10.1,4.1-15.3,5.6c-0.3-2.7-0.5-5.4-0.6-8.1c-2.3-51,19.6-93.5,49-94.8
	C161.9,58.6,177,70.6,187.6,90z"/>
<path class="st2" d="M181.3,211.8c-7.4,14.4-25.3,21.5-47.5,21c0,0-0.1-0.1-0.1-0.1c1.6-0.3,3.1-0.8,4.6-1.4
	c13.6-2.5,23.9-8.6,28.5-18.4c2.8-5.9,3.2-12.6,1.6-19.7l0,0c-0.1-0.3-0.2-0.6-0.2-0.9s-0.1-0.5-0.2-0.7c-0.2-0.6-0.4-1.2-0.5-1.9
	c-0.1-0.2-0.1-0.4-0.2-0.6c-0.3-0.8-0.5-1.5-0.8-2.3l-0.1-0.2c-0.5-1.2-1-2.4-1.6-3.6c-0.4-1-0.9-1.9-1.4-2.9l0,0
	c-0.5-0.9-1-1.7-1.5-2.6l0,0c-0.5-0.9-1.1-1.7-1.6-2.6l0,0l-0.9-1.3l0,0c-4.2-6.1-9.1-11.7-14.5-16.7c-4-3.7-8.1-7.2-12.5-10.4
	c-5.8-4.3-11.9-8.2-18.2-11.7l-0.5-0.3c0.6-5.4,1.5-10.8,2.8-16l0.5,0.2c2.3,1.1,4.6,2.2,6.9,3.4C169,145.5,194.8,185.8,181.3,211.8
	z"/>
<path class="st2" d="M229.7,165c5.2-10.2,1.1-22.7-9.1-27.9c-2.9-1.5-6-2.2-9.2-2.2c-5.5-6.7-11.5-12.9-17.9-18.7
	c2.7-9.1,0.5-19-5.9-26c-1.1-1.2-2.3-2.3-3.6-3.3c-1-0.7-2-1.4-3-2c-9.5-5.5-21.5-4.7-30.2,2c-4.9-2.6-9.9-4.9-14.8-7l-0.7,0.7
	l-0.5,0.5c-0.4,0.5-0.9,0.9-1.3,1.4l-0.4,0.5c-0.5,0.6-1,1.2-1.6,1.9c0,0.1-0.1,0.1-0.1,0.2c-0.8,1-1.6,2.1-2.4,3.2
	c-0.6,0.9-1.2,1.8-1.7,2.7l0,0c-0.5,0.8-1,1.7-1.5,2.6l0,0c-0.5,0.9-1,1.8-1.4,2.7l0,0c-0.2,0.5-0.5,0.9-0.7,1.4
	c1.7,0.8,3.3,1.5,5,2.4c4.1,2,8,4.1,11.8,6.2c-1.2,15,9.9,28.1,24.9,29.3c4.3,0.4,8.7-0.3,12.6-2c5,4.7,9.6,9.6,13.9,14.9
	c-4,10.7,1.4,22.7,12.2,26.7c1.4,0.5,2.8,0.9,4.3,1.1c5,13.5,5.3,26.5-0.1,37.5c-7.4,15-24,23.9-45.6,26.4
	c31,1.7,56.3-7.6,67.2-27.5C237.2,199,236.7,182.3,229.7,165z M181.3,116.4c-4.4,7.6-14.2,10.3-21.9,5.8
	c-7.6-4.4-10.3-14.2-5.8-21.9c4.4-7.6,14.2-10.2,21.8-5.8C183.1,98.9,185.7,108.7,181.3,116.4C181.3,116.3,181.3,116.4,181.3,116.4z
	 M221.9,161.8c-3.4,5.9-11,7.9-16.9,4.5c-5.9-3.4-7.9-11-4.5-16.9c3.4-5.9,11-7.9,16.9-4.5C223.3,148.3,225.4,155.8,221.9,161.8
	C221.9,161.8,221.9,161.8,221.9,161.8z"/>
<g class="st3">
	<path class="st2" d="M252.1,61c0-5.9,1.7-10.2,5-12.9c3.3-2.7,8.8-4.1,16.3-4.1s13,1.4,16.3,4.1c3.3,2.7,5,7.1,5,12.9
		c0,5.9-1.7,10.2-5,12.9c-3.3,2.7-8.8,4.1-16.3,4.1s-13-1.4-16.3-4.1C253.8,71.1,252.1,66.8,252.1,61z M290.6,232.5
		c0,5.3-1.4,8.8-4.3,10.4c-2.9,1.6-7.2,2.5-12.9,2.5c-5.7,0-10-0.8-12.8-2.5c-2.8-1.6-4.2-5.1-4.2-10.4V102.7
		c0-5.3,1.4-8.8,4.2-10.4c2.8-1.6,7-2.5,12.8-2.5c5.7,0,10.1,0.8,12.9,2.5c2.9,1.6,4.3,5.1,4.3,10.4V232.5z"/>
</g>
<g class="st3">
	<path class="st2" d="M433.9,74.7v157.8c0,5.3-1.5,8.8-4.6,10.4c-3.1,1.6-7.5,2.5-13.5,2.5c-5.7,0-10.1-0.8-13.2-2.5
		c-3.1-1.6-4.6-5.1-4.6-10.4V74.7H317c-4.3,0-7.1-1.2-8.5-3.7s-2-6.2-2-11.1s0.7-8.7,2-11.1s4.2-3.7,8.5-3.7h198.2
		c4.3,0,7.1,1.2,8.5,3.7s2,6.2,2,11.1s-0.7,8.7-2,11.1s-4.2,3.7-8.5,3.7H433.9z"/>
</g>
<g class="st3">
	<path class="st2" d="M569.4,161v32.2c0,5.9,3.6,10.9,10.8,15.1c7.2,4.2,18.7,6.3,34.5,6.3h128.8c4.3,0,7.1,1.2,8.5,3.7
		c1.3,2.5,2,6.2,2,11.1c0,4.8-0.7,8.4-2,11c-1.3,2.6-4.2,3.8-8.5,3.8H613.6c-53.2,0-79.7-17-79.7-51.1v-97
		c0-34.1,26.6-51.1,79.7-51.1h40.1c4.1,0,6.9,1.2,8.2,3.7c1.3,2.5,2,6.2,2,11.1s-0.7,8.7-2,11.1c-1.3,2.5-4.1,3.7-8.2,3.7h-39.1
		c-15.8,0-27.3,2.1-34.5,6.2c-7.2,4.1-10.8,9.2-10.8,15.3v35.2h174.8c4.3,0,7.1,1.2,8.5,3.7c1.3,2.5,2,6.2,2,11.1s-0.7,8.7-2,11.1
		c-1.3,2.5-4.2,3.7-8.5,3.7H569.4z"/>
	<path class="st2" d="M853.8,244.3c-53.2,0-79.7-17-79.7-51.1v-97c0-34.1,26.6-51.1,79.7-51.1h132c4.3,0,7.1,1.2,8.5,3.7
		s2,6.2,2,11.1s-0.7,8.7-2,11.1s-4.2,3.7-8.5,3.7H854.9c-15.8,0-27.3,2.1-34.5,6.2c-7.2,4.1-10.8,9.2-10.8,15.3v97
		c0,5.9,3.6,10.9,10.8,15.1c7.2,4.2,18.7,6.3,34.5,6.3h131.2c4.3,0,7.1,1.2,8.4,3.7c1.3,2.5,1.9,6.2,1.9,11.1c0,4.8-0.6,8.4-1.9,11
		c-1.3,2.6-4,3.8-8.4,3.8H853.8z"/>
	<path class="st2" d="M1053.7,131.3h173.5V56.8c0-5.3,1.5-8.8,4.6-10.4c3.1-1.6,7.5-2.5,13.5-2.5c5.7,0,10.1,0.8,13.2,2.5
		c3.1,1.6,4.6,5.1,4.6,10.4v175.6c0,5.3-1.5,8.8-4.6,10.4c-3.1,1.6-7.5,2.5-13.2,2.5c-5.9,0-10.4-0.8-13.5-2.5
		c-3.1-1.6-4.6-5.1-4.6-10.4V161h-173.5v71.5c0,5.3-1.5,8.8-4.6,10.4c-3.1,1.6-7.5,2.5-13.5,2.5c-5.7,0-10.1-0.8-13.2-2.5
		c-3.1-1.6-4.6-5.1-4.6-10.4V56.8c0-5.3,1.5-8.8,4.6-10.4c3.1-1.6,7.4-2.5,13.2-2.5c5.9,0,10.4,0.8,13.5,2.5
		c3.1,1.6,4.6,5.1,4.6,10.4V131.3z"/>
</g>
<g class="st3">
	<path class="st1" d="M413.9,5.7c0.8,0,1.5,0.1,2,0.4c0.5,0.3,0.9,0.6,1.3,1.1l18.3,26.1c0.2,0.3,0.3,0.6,0.3,1
		c0,0.3-0.1,0.6-0.3,0.9c-0.2,0.3-0.4,0.5-0.7,0.7c-0.3,0.2-0.6,0.4-1,0.5c-0.4,0.1-0.7,0.2-1.1,0.2c-0.4,0-0.7-0.1-1-0.2
		c-0.3-0.1-0.6-0.3-0.8-0.7l-5-7.2h-23.4l-4.7,7.2c-0.2,0.3-0.5,0.5-0.8,0.7c-0.3,0.1-0.7,0.2-1,0.2c-0.3,0-0.7-0.1-1-0.2
		c-0.4-0.1-0.7-0.3-1-0.5c-0.3-0.2-0.5-0.4-0.7-0.7c-0.2-0.3-0.3-0.6-0.3-0.9c0-0.3,0.1-0.6,0.3-0.9l17.2-26.1
		c0.3-0.5,0.7-0.8,1.3-1.1C412.4,5.8,413.1,5.7,413.9,5.7z M405.5,23.8h17.3l-8.9-13.1L405.5,23.8z"/>
	<path class="st1" d="M638.2,7.7c0-1.3,0.7-1.9,2-1.9H664c1.9,0,3.6,0.2,5.1,0.5c1.5,0.3,2.8,0.8,3.9,1.4c1.1,0.6,1.9,1.3,2.5,2.1
		c0.6,0.8,0.9,1.8,0.9,2.8v6.1c0,1-0.3,2-0.9,2.8c-0.6,0.8-1.4,1.6-2.5,2.1c-1.1,0.6-2.4,1-3.9,1.4c-1.5,0.3-3.2,0.5-5.1,0.5h-20.2
		v8.9c0,0.8-0.2,1.3-0.7,1.6c-0.5,0.3-1.2,0.4-2.1,0.4c-0.9,0-1.6-0.1-2.1-0.4c-0.5-0.3-0.7-0.8-0.7-1.6V7.7z M643.8,10.3v10.6h19.7
		c1.4,0,2.6-0.1,3.5-0.2c0.9-0.1,1.7-0.3,2.2-0.6c0.6-0.2,1-0.5,1.2-0.8c0.2-0.3,0.3-0.7,0.3-1.1V13c0-0.4-0.1-0.7-0.3-1.1
		c-0.2-0.3-0.6-0.6-1.2-0.9c-0.6-0.2-1.3-0.4-2.2-0.6c-0.9-0.1-2.1-0.2-3.5-0.2H643.8z"/>
	<path class="st1" d="M879.5,7.7c0-1.3,0.7-1.9,2-1.9h23.8c1.9,0,3.6,0.2,5.1,0.5c1.5,0.3,2.8,0.8,3.9,1.4c1.1,0.6,1.9,1.3,2.5,2.1
		s0.9,1.8,0.9,2.8v6.1c0,1-0.3,2-0.9,2.8s-1.4,1.6-2.5,2.1c-1.1,0.6-2.4,1-3.9,1.4c-1.5,0.3-3.2,0.5-5.1,0.5h-20.2v8.9
		c0,0.8-0.2,1.3-0.7,1.6c-0.5,0.3-1.2,0.4-2.1,0.4c-0.9,0-1.6-0.1-2.1-0.4c-0.5-0.3-0.7-0.8-0.7-1.6V7.7z M885.1,10.3v10.6h19.7
		c1.4,0,2.6-0.1,3.5-0.2c0.9-0.1,1.7-0.3,2.2-0.6c0.6-0.2,1-0.5,1.2-0.8c0.2-0.3,0.3-0.7,0.3-1.1V13c0-0.4-0.1-0.7-0.3-1.1
		c-0.2-0.3-0.6-0.6-1.2-0.9c-0.6-0.2-1.3-0.4-2.2-0.6c-0.9-0.1-2.1-0.2-3.5-0.2H885.1z"/>
	<path class="st1" d="M1132.6,23c-8.3,0-12.4-2.6-12.4-7.8v-1.6c0-5.2,4.1-7.8,12.4-7.8h4.2c0.7,0,1.1,0.2,1.3,0.6s0.3,0.9,0.3,1.7
		c0,0.8-0.1,1.3-0.3,1.7c-0.2,0.4-0.7,0.6-1.3,0.6h-4.3c-2.5,0-4.2,0.3-5.2,0.9c-1,0.6-1.5,1.4-1.5,2.3v1.6c0,0.9,0.5,1.7,1.5,2.3
		c1,0.6,2.8,1,5.2,1h9.9c8.3,0,12.4,2.6,12.4,7.8v2.1c0,5.2-4.1,7.8-12.4,7.8h-20.6c-0.7,0-1.1-0.2-1.3-0.6s-0.3-0.9-0.3-1.7
		c0-0.8,0.1-1.3,0.3-1.7s0.7-0.6,1.3-0.6h20.7c2.5,0,4.2-0.3,5.2-0.9c1-0.6,1.5-1.4,1.5-2.3v-2.1c0-0.9-0.5-1.7-1.5-2.3
		c-1-0.6-2.8-1-5.2-1H1132.6z"/>
</g>
</svg>
