<?xml version="1.0" encoding="utf-8"?>
<!-- Generator: Adobe Illustrator 23.0.1, SVG Export Plug-In . SVG Version: 6.00 Build 0)  -->
<svg version="1.1" id="Layer_1" xmlns="http://www.w3.org/2000/svg" xmlns:xlink="http://www.w3.org/1999/xlink" x="0px" y="0px"
	 viewBox="0 0 366 349" style="enable-background:new 0 0 366 349;" xml:space="preserve">
<style type="text/css">
	.st0{fill:none;}
	.st1{fill:url(#SVGID_1_);}
</style>
<title>iTECH logo gradient</title>
<path class="st0" d="M84.2,229.8c-10.8-3.3-19.5-9.1-25.3-17.5c-9.6-13.8-9.9-32.4-2.6-52.7c-0.2,1.9-0.4,3.7-0.4,5.6
	c0,17.2,10.4,32.6,26.3,39.1C82.6,213,83.2,221.5,84.2,229.8z"/>
<path class="st0" d="M96.2,190.1c-13.8-1.1-24-13.1-23-26.9s13.1-24,26.9-23c12.3,1,22,10.7,23,23c1.1,13.8-9.2,25.8-23,26.9
	C98.8,190.2,97.5,190.2,96.2,190.1z"/>
<path class="st0" d="M147,71.3c-1.1,10.6-10.6,18.3-21.1,17.2c-10.6-1.1-18.3-10.6-17.2-21.1c0.9-9.1,8.1-16.3,17.2-17.2
	c10.6-1.1,20.1,6.7,21.2,17.3C147.2,68.8,147.2,70.1,147,71.3z"/>
<path class="st0" d="M125.9,50.2c-10.6,1.1-18.3,10.6-17.2,21.2s10.6,18.3,21.2,17.2c9.1-0.9,16.3-8.1,17.2-17.2
	c1-10.6-6.8-20.1-17.4-21.1C128.4,50.1,127.1,50.1,125.9,50.2z M123.1,163.2c-1.1-13.7-13.1-24-26.9-22.9s-24,13.1-22.9,26.9
	c1,12.2,10.7,21.9,22.9,22.9c13.8,1.1,25.8-9.2,26.9-23C123.2,165.8,123.2,164.5,123.1,163.2L123.1,163.2z M123.1,163.2
	c-1.1-13.7-13.1-24-26.9-22.9s-24,13.1-22.9,26.9c1,12.2,10.7,21.9,22.9,22.9c13.8,1.1,25.8-9.2,26.9-23
	C123.2,165.8,123.2,164.5,123.1,163.2L123.1,163.2z M125.9,50.2c-10.6,1.1-18.3,10.6-17.2,21.2s10.6,18.3,21.2,17.2
	c9.1-0.9,16.3-8.1,17.2-17.2c1-10.6-6.8-20.1-17.4-21.1C128.4,50.1,127.1,50.1,125.9,50.2z"/>
<path d="M85.7,230.2c-0.5-0.1-1-0.3-1.5-0.4l0,0C84.7,229.9,85.2,230.1,85.7,230.2z"/>
<path d="M117.8,232.8L117.8,232.8c-0.8,0.1-1.6,0.1-2.4,0.1L117.8,232.8z"/>
<path class="st0" d="M259.8,304.8c-7.1,15.2-23.1,24.8-44.4,28.7c1.7-0.7,3.4-1.6,5-2.5c14.9-8.6,23.1-25.3,20.8-42.3
	c7.3-4.7,14.3-9.5,21-14.5C264.8,285.2,264.1,295.6,259.8,304.8z"/>
<path class="st0" d="M211.8,316c-11.9,6.9-27.2,2.8-34.1-9.1c-6.9-11.9-2.8-27.2,9.1-34.1c11.9-6.9,27.2-2.8,34.1,9.1c0,0,0,0,0,0
	C227.8,293.8,223.7,309.1,211.8,316z"/>
<path class="st0" d="M111.1,333.3c-9.2,5.3-21,2.2-26.3-7.1s-2.2-21,7.1-26.3c9.2-5.3,21-2.2,26.3,7.1
	C123.5,316.2,120.4,328,111.1,333.3C111.1,333.3,111.1,333.3,111.1,333.3z"/>
<path class="st0" d="M220.9,281.9c-6.9-11.9-22.1-16-34.1-9.1s-16,22.1-9.1,34.1c6.9,11.9,22.1,16,34.1,9.1c0,0,0,0,0,0
	C223.7,309.1,227.8,293.8,220.9,281.9z M118.2,307c-5.3-9.2-17.1-12.4-26.3-7.1c-9.2,5.3-12.4,17.1-7.1,26.3
	c5.3,9.2,17.1,12.4,26.3,7.1C120.4,328,123.5,316.2,118.2,307C118.2,307,118.2,307,118.2,307L118.2,307z M220.9,281.9
	c-6.9-11.9-22.1-16-34.1-9.1s-16,22.1-9.1,34.1c6.9,11.9,22.1,16,34.1,9.1c0,0,0,0,0,0C223.7,309.1,227.8,293.8,220.9,281.9z
	 M91.9,299.9c-9.2,5.3-12.4,17.1-7,26.3c5.3,9.2,17.1,12.4,26.3,7c9.2-5.3,12.4-17.1,7-26.3c0,0,0,0,0,0
	C112.9,297.7,101.1,294.6,91.9,299.9L91.9,299.9z"/>
<linearGradient id="SVGID_1_" gradientUnits="userSpaceOnUse" x1="389.9852" y1="75.0462" x2="690.6182" y2="-98.5244" gradientTransform="matrix(1 0 0 -1 -330.33 198.84)">
	<stop  offset="0" style="stop-color:#80D0C7"/>
	<stop  offset="5.245614e-02" style="stop-color:#74CACA"/>
	<stop  offset="0.2614" style="stop-color:#4BB7D5"/>
	<stop  offset="0.4654" style="stop-color:#2AA7DE"/>
	<stop  offset="0.6606" style="stop-color:#139CE4"/>
	<stop  offset="0.843" style="stop-color:#0595E8"/>
	<stop  offset="1" style="stop-color:#0093E9"/>
</linearGradient>
<path class="st1" d="M206.5,201.5c-9.6,5.9-19.6,11.1-29.9,15.6c-7.8,3.4-15.7,6.4-23.8,8.9c-11.2,3.5-22.8,5.8-34.5,6.8l0,0
	c-0.8,0.1-1.6,0.1-2.4,0.1l2.4-0.2c-0.3-2.8-0.5-5.7-0.7-8.6c-0.5-7-0.7-13.9-0.8-20.8c21.1-10,30.2-35.2,20.2-56.3
	c-2.9-6.1-7.2-11.4-12.5-15.5c2.4-10.3,5.5-20.5,9.3-30.4c17.6-3,29.5-19.7,26.5-37.3c-0.4-2.2-1-4.5-1.8-6.6
	c14.3-17.3,31.6-27.8,50.7-29.1c26-1.8,50.9,13.8,71.1,40.9c-21.8-43.1-54-70.1-89.3-69.2c-24.2,0.6-46.3,14.3-64.2,37.1
	C108.9,38,95.2,53.2,96.1,71c0.3,5,1.7,9.9,4.2,14.3c-4.7,12.6-8.5,25.5-11.2,38.7c-14.4,3.4-26,14.1-30.5,28.2
	c0.1-0.3,0.2-0.5,0.3-0.8c-18.3,29.7-22.9,59.7-9.1,81.1c24.6,38.6,98.9,35.1,165.9-7.7c3.6-2.3,7.1-4.7,10.5-7.1l0,0
	c8.4,7.8,16,16.5,22.6,25.9l0,0c0.5,0.7,0.9,1.4,1.3,2c-0.4-0.7-0.9-1.4-1.4-2c-2.3,1.6-4.7,3.3-7.1,4.9
	c-5.8,3.9-11.7,7.6-17.6,11.1c-19.2-13.3-45.6-8.5-58.9,10.7c-3.8,5.5-6.3,11.9-7.1,18.6c-10.1,3.1-20.5,5.5-30.9,7.2
	c-11.4-13.8-31.8-15.7-45.5-4.3c-1.8,1.5-3.4,3.1-4.8,4.9c-22.1-3.7-39.9-13.4-50.5-29.3c-14.5-21.6-13.5-51-0.1-82
	c-26.4,40.5-33.7,81.8-15.3,111.9c12.6,20.7,35.5,33,64.2,37c9.7,15,29.7,19.2,44.7,9.5c4.2-2.7,7.7-6.4,10.2-10.7
	c13.3-2.2,26.4-5.4,39.1-9.6c10.2,10.8,25.2,15.5,39.7,12.4c0,0.1,0.1,0.1,0.1,0.2c34.5,0.8,62.3-10.3,73.9-32.7
	c21.1-40.6-19.1-103.2-89.7-139.8c-3.8-2-7.6-3.8-11.4-5.5l0,0c2.5-11.2,6.3-22.1,11.2-32.5l0,0c0.4-0.7,0.7-1.5,1.1-2.2
	c-0.4,0.7-0.7,1.5-1.1,2.2c2.6,1.2,5.2,2.4,7.8,3.7c6.3,3.1,12.4,6.3,18.4,9.7c-1.9,23.3,15.4,43.7,38.7,45.6
	c6.7,0.6,13.5-0.5,19.7-3.1c7.7,7.2,15,15,21.7,23.2c-6.2,16.7,2.3,35.3,19,41.6c2.2,0.8,4.4,1.4,6.7,1.7c7.8,21,8.3,41.2-0.1,58.4
	c-11.5,23.4-37.4,37.2-71,41.1c48.2,2.6,87.7-11.8,104.6-42.7c11.6-21.3,10.8-47.3,0-74.1c8.1-15.9,1.8-35.3-14.1-43.4
	c-4.5-2.3-9.4-3.5-14.4-3.5c-8.5-10.4-17.9-20.1-27.9-29.1c4.3-14.2,0.8-29.6-9.2-40.6l0.1-0.2c-16.6-30.2-40-48.8-65.2-47.7
	c-45.7,2.1-79.8,68.1-76.2,147.5c0.2,4.3,0.5,8.5,0.9,12.7c8.1-2.5,16-5.4,23.8-8.8c-0.3-11.5,0.2-23,1.5-34.5
	c0.3,0.1,0.5,0.3,0.7,0.4C188,188.7,197.5,194.8,206.5,201.5 M109.2,67.4c1.1-10.6,10.5-18.3,21.1-17.2s18.3,10.5,17.2,21.1
	c-0.9,9.1-8.1,16.3-17.2,17.2c-10.6,1-20.1-6.7-21.2-17.4C109.1,69.9,109.1,68.7,109.2,67.4z M84.8,229.8L84.8,229.8
	c-10.8-3.3-19.5-9.1-25.3-17.5c-9.6-13.8-9.9-32.4-2.6-52.7c-0.2,1.9-0.4,3.7-0.4,5.6c0,17.2,10.4,32.6,26.3,39.1
	C83.1,213.1,83.8,221.5,84.8,229.8c0.5,0.1,1,0.3,1.5,0.4C85.8,230.1,85.2,229.9,84.8,229.8z M96.8,190.1c-13.8-1.1-24-13.1-23-26.9
	s13.1-24,26.9-23c12.3,1,22,10.7,23,23c1.1,13.8-9.2,25.8-23,26.9C99.4,190.2,98.1,190.2,96.8,190.1L96.8,190.1z M111.7,333.3
	c-9.2,5.3-21,2.2-26.3-7.1s-2.2-21,7.1-26.3c9.2-5.3,21-2.2,26.3,7.1C124.1,316.2,120.9,328,111.7,333.3L111.7,333.3z M178.2,306.8
	c-6.9-11.9-2.8-27.2,9.1-34.1c11.9-6.9,27.2-2.8,34.1,9.1c6.9,11.9,2.8,27.2-9.1,34.1c0,0,0,0,0,0
	C200.4,322.8,185.1,318.7,178.2,306.8z M262.8,274.2L262.8,274.2c2.5,11,1.9,21.4-2.5,30.7c-7.1,15.2-23.1,24.8-44.4,28.7
	c1.7-0.7,3.4-1.6,5-2.5c14.9-8.6,23.1-25.3,20.8-42.3C249,284,256,279.2,262.8,274.2l-0.4-1.4C262.6,273.2,262.7,273.7,262.8,274.2
	L262.8,274.2z M283.7,152.9c-5.9,12.5-20.8,17.8-33.2,11.9c-12.5-5.9-17.8-20.8-11.9-33.2c5.9-12.5,20.8-17.8,33.2-11.9
	c1.2,0.6,2.4,1.3,3.5,2C285.4,128.7,288.9,141.9,283.7,152.9z M282.3,105.6c-14.9-8.6-33.4-7.3-47,3.2c-7.7-4-15.4-7.6-23.1-10.9
	l-1.1,1c0.4-0.4,0.7-0.7,1.1-1.1l0,0c8.3-7.7,17.6-12.3,27.8-13.2c16.7-1.4,33,7.6,47,24.1C285.5,107.5,284,106.5,282.3,105.6
	L282.3,105.6z M346.1,225.4c-5.3,9.2-17.1,12.4-26.3,7.1c-9.2-5.3-12.4-17.1-7.1-26.3c5.3-9.2,17.1-12.4,26.3-7.1
	C348.2,204.4,351.4,216.2,346.1,225.4C346.1,225.4,346.1,225.4,346.1,225.4L346.1,225.4z"/>
<path d="M262.3,274.2L262.3,274.2l-0.4-1.5C262,273.2,262.1,273.7,262.3,274.2z"/>
<path d="M249.4,245.7c-0.4-0.7-0.9-1.4-1.4-2l0,0C248.5,244.3,249,245,249.4,245.7z"/>
<path class="st0" d="M286.5,108.7c-15.2-11.8-36.5-11.8-51.7,0c-7.7-4-15.4-7.6-23.1-10.9c8.3-7.7,17.6-12.3,27.8-13.2
	C256.2,83.2,272.5,92.3,286.5,108.7z"/>
<path class="st0" d="M282.2,154.7c-6.9,11.9-22.1,16-34.1,9.1s-16-22.1-9.1-34.1c6.9-11.9,22.1-16,34.1-9.1c0,0,0,0,0,0
	C285,127.5,289.1,142.8,282.2,154.7z"/>
<path class="st0" d="M345.5,225.4c-5.3,9.2-17.1,12.4-26.3,7.1c-9.2-5.3-12.4-17.1-7.1-26.3c5.3-9.2,17.1-12.4,26.3-7.1
	C347.7,204.4,350.8,216.2,345.5,225.4C345.5,225.4,345.5,225.4,345.5,225.4z"/>
<path class="st0" d="M338.4,199.1c-9.2-5.3-21-2.2-26.3,7.1c-5.3,9.2-2.2,21,7.1,26.3c9.2,5.3,21,2.2,26.3-7.1
	C350.8,216.2,347.7,204.4,338.4,199.1C338.4,199.1,338.4,199.1,338.4,199.1z M273.1,120.6c-11.9-6.9-27.2-2.8-34.1,9.1
	c-6.9,11.9-2.8,27.2,9.1,34.1c11.9,6.9,27.2,2.8,34.1-9.1c0,0,0,0,0,0C289.1,142.8,285,127.5,273.1,120.6z M338.4,199.1
	c-9.2-5.3-21-2.2-26.3,7.1c-5.3,9.2-2.2,21,7.1,26.3c9.2,5.3,21,2.2,26.3-7.1C350.8,216.2,347.7,204.4,338.4,199.1
	C338.4,199.1,338.4,199.1,338.4,199.1z M273.1,120.6c-11.9-6.9-27.2-2.8-34.1,9.1c-6.9,11.9-2.8,27.2,9.1,34.1
	c11.9,6.9,27.2,2.8,34.1-9.1c0,0,0,0,0,0C289.1,142.8,285,127.5,273.1,120.6z"/>
<path d="M211.7,97.8L211.7,97.8"/>
<path d="M192.3,125.4L192.3,125.4"/>
</svg>
